# xmcd
#
# Track frame offsets:
#   150
#   14030
#   30298
#   46365
#   64060
#   78118
#   93136
#   110448
#   122663
#   140764
#   157997
#   175119
#   188512
#   203878
#   220923
#   237033
#   249343
#   263265
#   277506
#
# Disc length: 3885 seconds
#
# Revision: 0
# Processed by: cddbd v1.5.1PL0 Copyright (c) Steve Scherf et al.
# Submitted via: Media_Universe 3.0
#
DISCID=e90f2b13
DTITLE=JOE DIFFIE - Joe Diffie
DYEAR=2004
DGENRE=Country
TTITLE0=Thats My Story
TTITLE1=Pickup Man
TTITLE2=A Night To Remember
TTITLE3=Bigger Than The Beatles
TTITLE4=Bubba Shot The Jukebox
TTITLE5=Home
TTITLE6=Honky Tonk Attitude
TTITLE7=If The Devil Danced In Empty Pockets
TTITLE8=If You Want Me To
TTITLE9=In Another World
TTITLE10=Is It Cold In Here
TTITLE11=It's Always Something
TTITLE12=Not Too Much To Ask
TTITLE13=Prop Me Up Beside The Jukebox
TTITLE14=So Help Me Girl
TTITLE15=Twxas Size Heartache
TTITLE16=Third Rock From The Sun
TTITLE17=Tougher Than Nails
TTITLE18=Runnin' Wide Open
EXTD=
EXTT0=
EXTT1=
EXTT2=
EXTT3=
EXTT4=
EXTT5=
EXTT6=
EXTT7=
EXTT8=
EXTT9=
EXTT10=
EXTT11=
EXTT12=
EXTT13=
EXTT14=
EXTT15=
EXTT16=
EXTT17=
EXTT18=
PLAYORDER=
